<svg width="40" height="40" viewBox="0 0 40 40" fill="none" xmlns="http://www.w3.org/2000/svg">
<path d="M20 0.625C9.31625 0.625 0.625 9.31687 0.625 20C0.625 30.6831 9.31625 39.375 20 39.375C30.6838 39.375 39.375 30.6831 39.375 20C39.375 9.31687 30.6838 0.625 20 0.625ZM27.8581 20.5119L15.3581 29.2619C15.2513 29.3369 15.1256 29.375 15 29.375C14.9012 29.375 14.8025 29.3513 14.7113 29.3044C14.5044 29.1969 14.375 28.9831 14.375 28.75V11.25C14.375 11.0169 14.5044 10.8031 14.7113 10.6956C14.9175 10.5888 15.1669 10.6044 15.3581 10.7381L27.8581 19.4881C28.0256 19.605 28.125 19.7962 28.125 20C28.125 20.2038 28.0256 20.395 27.8581 20.5119Z" fill="white"/>
</svg>
